<?xml version="1.0" encoding="iso-8859-1"?>
<!-- Generator: Adobe Illustrator 19.0.0, SVG Export Plug-In . SVG Version: 6.00 Build 0)  -->
<svg version="1.1" id="Capa_1" xmlns="http://www.w3.org/2000/svg" xmlns:xlink="http://www.w3.org/1999/xlink" x="0px" y="0px"
	 viewBox="0 0 512 512" style="enable-background:new 0 0 512 512;" xml:space="preserve">
<g>
	<g>
		<path d="M416,234.664c-5.871,0-11.563,0.719-17.145,1.733l-33.668-112.223l54.188-18.063c5.583-1.854,8.604-7.896,6.74-13.49
			c-1.865-5.583-7.865-8.594-13.49-6.74l-64,21.333c-5.469,1.823-8.5,7.656-6.844,13.177l15.081,50.271H198.594l-17.458-34.917
			l24.906-8.302c4.958-1.646,7.99-6.656,7.156-11.823c-0.844-5.167-5.302-8.958-10.531-8.958h-64
			c-5.896,0-10.667,4.771-10.667,10.667v21.333c0,3.427,1.646,6.646,4.427,8.656c1.844,1.323,4.031,2.01,6.24,2.01
			c1.135,0,2.271-0.177,3.375-0.552l18.647-6.216l19.056,38.111l-41.339,64.303c-12.845-6.388-27.113-10.313-42.406-10.313
			c-52.938,0-96,43.063-96,96s43.063,96,96,96c49.285,0,89.536-37.465,94.922-85.333h35.043
			c4.418,12.389,16.147,21.333,30.035,21.333c17.646,0,32-14.354,32-32c0-6.391-1.93-12.319-5.169-17.32l84.121-109.048
			l11.424,38.082C344.095,257.043,320,291.078,320,330.664c0,52.938,43.063,96,96,96s96-43.063,96-96
			C512,277.727,468.938,234.664,416,234.664z M96,383.998c-29.406,0-53.333-23.927-53.333-53.333
			c0-29.406,23.927-53.333,53.333-53.333c6.79,0,13.234,1.397,19.214,3.723l-28.182,43.84c-2.115,3.281-2.26,7.458-0.396,10.885
			c1.875,3.417,5.458,5.552,9.365,5.552h52.254C143.298,365.645,121.754,383.998,96,383.998z M115.542,319.997l17.643-27.447
			c7.504,7.322,12.897,16.79,15.069,27.447H115.542z M225.965,319.997h-35.043c-2.876-25.573-15.652-47.943-34.617-63.414
			l34.534-53.721l49.921,99.841C233.913,306.452,228.618,312.556,225.965,319.997z M265.885,300.387
			c-0.954-0.313-1.885-0.673-2.878-0.896L209.26,191.997H349.5L265.885,300.387z M416,383.998
			c-29.406,0-53.333-23.927-53.333-53.333c0-20.262,11.492-37.711,28.176-46.734l14.939,49.797
			c1.385,4.625,5.625,7.604,10.219,7.604c1.01,0,2.042-0.146,3.063-0.448c5.646-1.698,8.844-7.646,7.156-13.281l-14.939-49.793
			c1.581-0.142,3.104-0.478,4.72-0.478c29.406,0,53.333,23.927,53.333,53.333S445.406,383.998,416,383.998z"/>
	</g>
</g>
<g>
</g>
<g>
</g>
<g>
</g>
<g>
</g>
<g>
</g>
<g>
</g>
<g>
</g>
<g>
</g>
<g>
</g>
<g>
</g>
<g>
</g>
<g>
</g>
<g>
</g>
<g>
</g>
<g>
</g>
</svg>
